<?xml version="1.0" encoding="UTF-8"?>
<svg version="1.1" xmlns="http://www.w3.org/2000/svg" width="400" height="400">
<path d="M0 0 C132 0 264 0 400 0 C400 132 400 264 400 400 C268 400 136 400 0 400 C0 268 0 136 0 0 Z " fill="#FEFEFE" transform="translate(0,0)"/>
<path d="M0 0 C2.72581645 1.15073657 5.21847952 2.59972482 7.75 4.125 C8.45084717 4.53443848 9.15169434 4.94387695 9.8737793 5.36572266 C11.27457832 6.18657509 12.67205206 7.01313212 14.06591797 7.84570312 C15.75556164 8.85411455 17.45693258 9.84282379 19.16015625 10.828125 C27.12577463 15.47375811 27.12577463 15.47375811 29 18 C29.38351441 20.71479445 29.58682098 23.19736508 29.64453125 25.921875 C29.66400314 26.70008606 29.68347504 27.47829712 29.70353699 28.28009033 C29.73624324 29.92746294 29.76005174 31.57503269 29.77563477 33.22265625 C29.81221167 35.73023315 29.91803727 38.2289697 30.02539062 40.734375 C30.29765662 52.321783 30.29765662 52.321783 27.07446289 56.49023438 C24.47103563 58.34759953 21.90619807 59.6721099 19 61 C17.28996117 62.02812348 15.58790538 63.06965421 13.89453125 64.125 C12.20387265 65.08923419 10.50985479 66.04760261 8.8125 67 C7.53729492 67.75216797 7.53729492 67.75216797 6.23632812 68.51953125 C2.34005685 70.70385013 -0.20273561 71.98579298 -4.7265625 72.06640625 C-8.43159314 70.85939746 -11.02727899 69.20853335 -14.1875 66.9375 C-19.53411862 63.38424909 -23.86476401 61.93676886 -30.328125 62.3984375 C-35.74070812 63.61706002 -38.92072529 66.38108794 -42 71 C-42.67247778 76.85681232 -42.820103 82.23829725 -40.3125 87.625 C-36.52586609 91.51397537 -33.08457027 93.47472755 -27.625 93.75 C-20.98090246 93.65965998 -16.59279436 90.87692578 -11.34033203 87.11425781 C-8.17036178 84.92171659 -6.55260483 84.01079803 -2.6015625 83.93359375 C1.9347267 85.27676832 5.73186044 87.26234106 9.8125 89.625 C10.55564453 90.03878906 11.29878906 90.45257813 12.06445312 90.87890625 C13.59510484 91.74640739 15.108426 92.64511688 16.60400391 93.57177734 C19.01221081 95.06678247 19.01221081 95.06678247 21.76708984 96.26025391 C24.89671301 97.90551924 26.80169567 99.21194649 29 102 C30.21294159 107.27223495 30.27596605 112.24705827 30.08398438 117.63427734 C29.99990336 120.12786613 30.00186616 122.6106955 30.015625 125.10546875 C29.9946452 126.6979914 29.96877088 128.29045869 29.9375 129.8828125 C29.93689575 130.99234787 29.93689575 130.99234787 29.9362793 132.1242981 C29.74565084 136.30406837 29.16746425 137.82991206 26.19506836 140.84887695 C20.99805271 144.34783813 20.99805271 144.34783813 18.94140625 145.53515625 C18.22533203 145.95216797 17.50925781 146.36917969 16.77148438 146.79882812 C16.04251953 147.21583984 15.31355469 147.63285156 14.5625 148.0625 C13.83740234 148.48337891 13.11230469 148.90425781 12.36523438 149.33789062 C10.93237239 150.16825539 9.49574263 150.99215715 8.05517578 151.80908203 C6.71261578 152.58705871 5.38660043 153.39451787 4.08154297 154.23388672 C-0.3930914 157.05429902 -0.3930914 157.05429902 -3.34130859 156.79052734 C-6.44179658 155.86863753 -8.99123029 154.5575291 -11.81640625 152.98046875 C-12.91017578 152.37009766 -14.00394531 151.75972656 -15.13085938 151.13085938 C-16.26330078 150.48955078 -17.39574219 149.84824219 -18.5625 149.1875 C-20.26696289 148.24293945 -20.26696289 148.24293945 -22.00585938 147.27929688 C-32.09970578 141.60411362 -32.09970578 141.60411362 -35 138 C-35.48242188 135.74511719 -35.48242188 135.74511719 -35.46875 133.296875 C-35.48292969 132.39839844 -35.49710937 131.49992188 -35.51171875 130.57421875 C-35.50397108 128.70703098 -35.49615968 126.83984347 -35.48828125 124.97265625 C-35.58538163 118.78471401 -36.50148619 114.18854262 -40 109 C-44.12185595 105.00695205 -49.01736233 104.59371575 -54.5625 104.6484375 C-60.14029543 105.45292723 -64.6619647 108.98964682 -69.0625 112.3125 C-72.79723924 114.4579885 -75.84700959 114.90895639 -80 114 C-82.88946416 112.62834775 -85.40254267 110.85532667 -88 109 C-89.30583897 108.15626706 -90.61838147 107.32281651 -91.9375 106.5 C-92.58976563 106.09007812 -93.24203125 105.68015625 -93.9140625 105.2578125 C-96.88937632 103.46370941 -99.94688234 101.83155586 -103.01953125 100.2109375 C-105.21777334 98.8668447 -106.4680134 98.09366188 -108 96 C-108.33483263 93.26018749 -108.4917943 90.75161582 -108.50390625 88.0078125 C-108.51389145 87.22485809 -108.52387665 86.44190369 -108.53416443 85.63522339 C-108.54934513 83.97936281 -108.55639023 82.32341057 -108.5559082 80.66748047 C-108.56246097 78.14005304 -108.61690646 75.6165741 -108.67382812 73.08984375 C-108.68263258 71.47918007 -108.6885852 69.86849777 -108.69140625 68.2578125 C-108.7129628 67.50557404 -108.73451935 66.75333557 -108.75672913 65.978302 C-108.71949031 63.11097397 -108.60163298 60.7443243 -106.75387573 58.45832825 C-104.1178252 56.20412244 -101.17185222 54.33410825 -98.125 52.68359375 C-97.44953125 52.31169922 -96.7740625 51.93980469 -96.078125 51.55664062 C-95.39234375 51.18732422 -94.7065625 50.81800781 -94 50.4375 C-92.62371143 49.68856102 -91.24869009 48.93728822 -89.875 48.18359375 C-89.21765869 47.82305908 -88.56031738 47.46252441 -87.88305664 47.09106445 C-86.11689268 46.06772895 -84.42690156 44.9160162 -82.74609375 43.7578125 C-79.74873268 41.83916032 -77.56694027 41.36042242 -74.00390625 41.54296875 C-71.03723142 42.2195788 -69.12740283 43.75176834 -66.7734375 45.62109375 C-61.62829886 49.62160904 -56.73394252 51.66713745 -50.171875 51.31640625 C-44.98840051 50.56125979 -41.87695801 49.10773643 -38.625 45 C-36.62780921 41.31287854 -35.88270525 38.63552913 -35.82421875 34.5078125 C-35.80037109 33.63769531 -35.77652344 32.76757812 -35.75195312 31.87109375 C-35.70917324 30.04841122 -35.67782019 28.22542271 -35.65820312 26.40234375 C-35.53350889 22.47592539 -35.36500035 19.68891427 -33.5078125 16.18359375 C-30.02792406 13.15359743 -26.25953964 11.07771905 -22.1875 8.9375 C-20.61832289 8.0927575 -19.04931021 7.24770945 -17.48046875 6.40234375 C-16.72040527 6.00128418 -15.9603418 5.60022461 -15.17724609 5.18701172 C-13.16579677 4.09039066 -11.24269041 2.90503273 -9.30078125 1.69140625 C-5.65269187 -0.17796973 -4.02075388 -0.67012565 0 0 Z " fill="#010204" transform="translate(276,122)"/>
<path d="M0 0 C3.14379883 1.56640625 3.14379883 1.56640625 6.45703125 3.5625 C7.0454631 3.9138501 7.63389496 4.2652002 8.24015808 4.62719727 C10.10306231 5.74266391 11.95763643 6.87122503 13.8125 8 C15.07697154 8.75865053 16.34194111 9.51647162 17.60742188 10.2734375 C26.78220956 15.78220956 26.78220956 15.78220956 28 17 C28.29200024 22.21793339 28.31405087 27.43849556 28.35009766 32.66381836 C28.36664999 34.42436956 28.3939308 36.18485376 28.43212891 37.94506836 C28.48689333 40.4806613 28.50877058 43.01467657 28.5234375 45.55078125 C28.54610687 46.33632889 28.56877625 47.12187653 28.59213257 47.93122864 C28.57687078 51.87909645 28.40820791 53.58451374 25.59008789 56.45288086 C24.30799438 57.21870483 24.30799438 57.21870483 23 58 C22.35160156 58.39703125 21.70320312 58.7940625 21.03515625 59.203125 C20.05869141 59.72132813 20.05869141 59.72132813 19.0625 60.25 C16.18391751 61.79295879 13.34812458 63.37781472 10.55078125 65.0625 C9.94419678 65.42311523 9.3376123 65.78373047 8.71264648 66.15527344 C7.51545752 66.86846532 6.32324098 67.59009251 5.13696289 68.32128906 C1.09389248 70.70561944 -2.29961489 71.87003543 -7 72 C-9.6953125 70.890625 -9.6953125 70.890625 -12.125 69.25 C-12.93195313 68.71890625 -13.73890625 68.1878125 -14.5703125 67.640625 C-16.19645045 66.54258973 -17.81753846 65.43704013 -19.43359375 64.32421875 C-24.07002068 61.93190714 -28.92155189 62.40050884 -34 63 C-38.97290426 65.13124468 -40.91196476 67.96008902 -43.18359375 72.64160156 C-44.92805261 77.68091754 -44.35166662 83.13592062 -44.13671875 88.3984375 C-44.1462289 94.97946375 -44.1462289 94.97946375 -46.50488281 97.79882812 C-48.58981999 99.41411014 -50.6965917 100.7163147 -53 102 C-53.75249023 102.44875488 -54.50498047 102.89750977 -55.28027344 103.35986328 C-57.58019916 104.7043375 -59.90596194 105.98421945 -62.25 107.25 C-63.03890625 107.683125 -63.8278125 108.11625 -64.640625 108.5625 C-66.7548127 109.71958921 -68.87079226 110.8707951 -71 112 C-71.67691895 112.37648682 -72.35383789 112.75297363 -73.05126953 113.14086914 C-76.2947054 114.57079282 -78.60714086 113.82538499 -82 113 C-84.92619522 111.64491154 -87.63760967 110.01228142 -90.375 108.3125 C-91.11943359 107.86205322 -91.86386719 107.41160645 -92.63085938 106.94750977 C-106.49135021 98.50864979 -106.49135021 98.50864979 -109 96 C-109.31614067 90.94322823 -109.35684516 85.88402083 -109.4050293 80.81835938 C-109.4265885 79.11307498 -109.46066742 77.40790063 -109.50756836 75.703125 C-109.57462318 73.24428921 -109.60203628 70.78774654 -109.62109375 68.328125 C-109.64892441 67.56961243 -109.67675507 66.81109985 -109.70542908 66.02960205 C-109.68923463 61.84373482 -109.25036514 60.2607458 -106.31494141 57.20361328 C-105.22101074 56.4764209 -104.12708008 55.74922852 -103 55 C-102.07437256 54.38334473 -101.14874512 53.76668945 -100.19506836 53.13134766 C-97.11795159 51.28060466 -94.0327391 49.44529094 -90.9375 47.625 C-89.86177734 46.97144531 -88.78605469 46.31789062 -87.67773438 45.64453125 C-86.63810547 45.03222656 -85.59847656 44.41992188 -84.52734375 43.7890625 C-83.58624756 43.22912598 -82.64515137 42.66918945 -81.67553711 42.09228516 C-78.54217349 40.81309282 -77.17449413 40.95222137 -74 42 C-71.96387506 43.08033757 -69.96468862 44.23212344 -68 45.4375 C-61.27257198 49.54775258 -55.97418518 52.14118198 -48 51 C-43.0289851 48.46759618 -39.50569433 45.01138866 -37 40 C-36.95343557 38.32877357 -36.96232025 36.65582534 -37 34.984375 C-36.99871094 33.98019531 -36.99742187 32.97601563 -36.99609375 31.94140625 C-36.99867912 29.82915735 -37.03209002 27.71670137 -37.09765625 25.60546875 C-37.01140661 18.1017498 -37.01140661 18.1017498 -34.30541992 15.15405273 C-31.94541434 13.55985076 -29.54309675 12.28072668 -27 11 C-25.23998756 9.92792958 -23.48616046 8.84564661 -21.73828125 7.75390625 C-19.93170534 6.686681 -18.12309226 5.62289704 -16.3125 4.5625 C-15.40177734 4.00884766 -14.49105469 3.45519531 -13.55273438 2.88476562 C-12.66521484 2.36720703 -11.77769531 1.84964844 -10.86328125 1.31640625 C-10.07219971 0.84662354 -9.28111816 0.37684082 -8.46606445 -0.10717773 C-5.17284238 -1.29946692 -3.36247599 -0.94099537 0 0 Z " fill="#020204" transform="translate(204,80)"/>
<path d="M0 0 C3.94721809 1.04564966 7.20650935 3.11364301 10.64013672 5.27099609 C11.38005859 5.72144287 12.11998047 6.17188965 12.88232422 6.63598633 C26.75076655 15.13162592 26.75076655 15.13162592 29.20263672 17.58349609 C29.31135263 19.05069315 29.35841595 20.52256898 29.37841797 21.99365234 C29.41418945 23.35586914 29.41418945 23.35586914 29.45068359 24.74560547 C29.49303994 26.65164103 29.52461651 28.55795234 29.54443359 30.46435547 C29.77296371 38.02710804 31.26612874 43.64698811 36.70263672 49.08349609 C42.03051212 51.36687127 46.50729381 51.7133147 52.20263672 50.58349609 C55.4172023 49.19362354 58.37672627 47.42964105 61.30615234 45.51806641 C64.96053702 43.13951077 67.80710873 41.71312292 72.20263672 41.58349609 C74.84326172 42.58740234 74.84326172 42.58740234 77.45263672 44.14599609 C78.40138672 44.70158203 79.35013672 45.25716797 80.32763672 45.82958984 C81.27638672 46.40837891 82.22513672 46.98716797 83.20263672 47.58349609 C84.08951172 48.11072266 84.97638672 48.63794922 85.89013672 49.18115234 C87.56643112 50.18028513 89.23851264 51.1865289 90.90576172 52.20068359 C92.98472793 53.45230611 95.08364568 54.65141432 97.20263672 55.83349609 C100.20263672 57.58349609 100.20263672 57.58349609 102.20263672 59.58349609 C102.42695238 62.26133499 102.53077178 64.83278212 102.53857422 67.51318359 C102.54855942 68.69329514 102.54855942 68.69329514 102.55874634 69.89724731 C102.56887971 71.56331034 102.57356315 73.229414 102.57324219 74.89550781 C102.57760831 77.44192712 102.61389795 79.98660326 102.65185547 82.53271484 C102.65772498 84.1511985 102.66169348 85.76969039 102.66357422 87.38818359 C102.67794525 88.1487204 102.69231628 88.9092572 102.7071228 89.69284058 C102.67836561 93.02966359 102.53257314 95.13080277 100.54052734 97.86401367 C96.25381667 101.01682312 91.72111821 103.67966273 87.12207031 106.34887695 C85.33014207 107.39453413 83.55390431 108.46397026 81.77685547 109.53466797 C80.64119141 110.19660156 79.50552734 110.85853516 78.33544922 111.54052734 C77.30307129 112.14872314 76.27069336 112.75691895 75.20703125 113.38354492 C71.60280426 114.82306838 69.89835035 114.65861279 66.20263672 113.58349609 C63.68896484 112.43188477 63.68896484 112.43188477 61.23388672 111.00146484 C60.33283203 110.48132813 59.43177734 109.96119141 58.50341797 109.42529297 C57.57916016 108.879375 56.65490234 108.33345703 55.70263672 107.77099609 C54.77837891 107.23667969 53.85412109 106.70236328 52.90185547 106.15185547 C39.62679283 98.43180831 39.62679283 98.43180831 38.20263672 95.58349609 C38.09737068 93.98693102 38.04737836 92.38652103 38.02685547 90.78662109 C37.99108398 89.34802734 37.99108398 89.34802734 37.95458984 87.88037109 C37.91195604 85.86495474 37.88052511 83.84926721 37.86083984 81.83349609 C37.68690011 75.78201131 37.21638213 72.20336881 33.20263672 67.58349609 C28.60575021 63.53385797 25.81684249 62.17363237 19.77294922 62.23193359 C14.37858504 62.96976456 9.79218663 65.98165988 5.22607422 68.80615234 C1.24812961 71.25074826 -1.15213538 72.00611513 -5.79736328 71.58349609 C-8.70996094 70.36181641 -8.70996094 70.36181641 -11.71142578 68.66162109 C-12.80197266 68.04802734 -13.89251953 67.43443359 -15.01611328 66.80224609 C-16.14017578 66.15255859 -17.26423828 65.50287109 -18.42236328 64.83349609 C-19.55416016 64.19927734 -20.68595703 63.56505859 -21.85205078 62.91162109 C-32.335462 56.94949149 -32.335462 56.94949149 -34.79736328 53.58349609 C-35.18308463 50.73028427 -35.33570757 48.27188971 -35.29345703 45.42333984 C-35.29491226 44.63705704 -35.29636749 43.85077423 -35.29786682 43.04066467 C-35.29621011 41.3822966 -35.28467417 39.7239128 -35.26391602 38.06567383 C-35.23492075 35.52603 -35.24331831 32.98846917 -35.25634766 30.44873047 C-35.25011112 28.83609011 -35.24172084 27.22345634 -35.23095703 25.61083984 C-35.23389267 24.85141586 -35.23682831 24.09199188 -35.23985291 23.30955505 C-35.14664789 18.10994377 -35.14664789 18.10994377 -33.59643555 15.7734375 C-31.30030416 14.25473152 -28.9860881 12.85510955 -26.57861328 11.51708984 C-25.56412109 10.94925781 -24.54962891 10.38142578 -23.50439453 9.79638672 C-22.44607422 9.21050781 -21.38775391 8.62462891 -20.29736328 8.02099609 C-18.20308908 6.85396754 -16.10931627 5.68603865 -14.01611328 4.51708984 C-12.62295898 3.74449829 -12.62295898 3.74449829 -11.20166016 2.95629883 C-4.72812774 -0.73995145 -4.72812774 -0.73995145 0 0 Z " fill="#010204" transform="translate(129.79736328125,206.41650390625)"/>
<path d="M0 0 C3.65033406 0.8043109 6.44051499 1.99102061 9.6875 3.8125 C9.3575 4.8025 9.0275 5.7925 8.6875 6.8125 C5.4375 8.1875 5.4375 8.1875 1.6875 8.8125 C-1.125 7.5 -1.125 7.5 -3.3125 5.8125 C-3.9725 5.4825 -4.6325 5.1525 -5.3125 4.8125 C-5.6425 3.8225 -5.9725 2.8325 -6.3125 1.8125 C-3.3125 -0.1875 -3.3125 -0.1875 0 0 Z M-8.3125 2.8125 C-7.6525 2.8125 -6.9925 2.8125 -6.3125 2.8125 C-6.3125 4.1325 -6.3125 5.4525 -6.3125 6.8125 C-5.6525 7.1425 -4.9925 7.4725 -4.3125 7.8125 C-5.6325 8.1425 -6.9525 8.4725 -8.3125 8.8125 C-8.9725 7.4925 -9.6325 6.1725 -10.3125 4.8125 C-9.6525 4.1525 -8.9925 3.4925 -8.3125 2.8125 Z " fill="#040506" transform="translate(273.3125,206.1875)"/>
<path d="M0 0 C1.671549 0.30791692 3.33805547 0.64386903 5 1 C6.33981486 0.6937566 7.67511887 0.36548445 9 0 C9.66 0.33 10.32 0.66 11 1 C13.32914823 1.36141955 15.66253478 1.69699525 18 2 C11.56398104 7.05687204 11.56398104 7.05687204 6.5625 6.875 C2.73572623 5.93509065 0.84263633 4.67035534 -2 2 C-1.34 1.34 -0.68 0.68 0 0 Z " fill="#0A0B0C" transform="translate(265,187)"/>
<path d="M0 0 C0.66 0 1.32 0 2 0 C2.66 1.65 3.32 3.3 4 5 C-3.3697851 9.46015566 -3.3697851 9.46015566 -8 8.75 C-8.99 8.5025 -9.98 8.255 -11 8 C-10.360625 7.7525 -9.72125 7.505 -9.0625 7.25 C-6.81258459 6.18437567 -6.81258459 6.18437567 -6.25 3.875 C-6.1675 3.25625 -6.085 2.6375 -6 2 C-5.01 2.33 -4.02 2.66 -3 3 C-2.01 2.34 -1.02 1.68 0 1 C0 0.67 0 0.34 0 0 Z " fill="#0D0D0F" transform="translate(133,185)"/>
<path d="M0 0 C2 1.5625 2 1.5625 3 3 C-3.75 6 -3.75 6 -6 6 C-6 4.68 -6 3.36 -6 2 C-6.66 2 -7.32 2 -8 2 C-8 2.66 -8 3.32 -8 4 C-8.99 4.33 -9.98 4.66 -11 5 C-11 4.34 -11 3.68 -11 3 C-11.66 2.67 -12.32 2.34 -13 2 C-8.3631269 -1.62255711 -5.501316 -1.24223264 0 0 Z " fill="#09090B" transform="translate(132,207)"/>
<path d="M0 0 C0.66 0.66 1.32 1.32 2 2 C1.46375 2.103125 0.9275 2.20625 0.375 2.3125 C-2.18334536 2.9720504 -2.18334536 2.9720504 -5.0625 4.5625 C-8 6 -8 6 -11 6 C-10.51812367 1.42217484 -10.51812367 1.42217484 -8.3125 -0.375 C-5.22983524 -1.20815264 -3.06839098 -0.80044982 0 0 Z " fill="#0E0F11" transform="translate(204,80)"/>
<path d="M0 0 C0 0.33 0 0.66 0 1 C-0.67546875 1.19335938 -1.3509375 1.38671875 -2.046875 1.5859375 C-3.38492188 1.97652344 -3.38492188 1.97652344 -4.75 2.375 C-5.63171875 2.63023437 -6.5134375 2.88546875 -7.421875 3.1484375 C-9.76080572 3.9209934 -11.83442562 4.83625676 -14 6 C-13.5 3.125 -13.5 3.125 -12 0 C-7.93182631 -2.09681199 -3.84334803 -2.88251103 0 0 Z " fill="#0D0E10" transform="translate(152,267)"/>
<path d="M0 0 C0.9075 0.185625 1.815 0.37125 2.75 0.5625 C5.68314324 0.95734621 7.2644657 0.94691572 10 0 C9.67 1.32 9.34 2.64 9 4 C5.6875 4.6875 5.6875 4.6875 2 5 C0.0625 3.5625 0.0625 3.5625 -1 2 C-0.67 1.34 -0.34 0.68 0 0 Z " fill="#0C0D0F" transform="translate(195,147)"/>
<path d="M0 0 C0.66 0.66 1.32 1.32 2 2 C-1.77385034 4.15648591 -4.69031271 4 -9 4 C-9.33 3.01 -9.66 2.02 -10 1 C-6.42894485 -1.33492068 -4.06144397 -1.05950712 0 0 Z " fill="#0B0C0E" transform="translate(204,249)"/>
<path d="M0 0 C0.66 0.33 1.32 0.66 2 1 C0.68 1.99 -0.64 2.98 -2 4 C-2 3.01 -2 2.02 -2 1 C-1.34 0.67 -0.68 0.34 0 0 Z M-5 3 C-4.34 3 -3.68 3 -3 3 C-3 4.32 -3 5.64 -3 7 C-2.34 7.33 -1.68 7.66 -1 8 C-2.32 8.33 -3.64 8.66 -5 9 C-5.66 7.68 -6.32 6.36 -7 5 C-6.34 4.34 -5.68 3.68 -5 3 Z " fill="#111113" transform="translate(270,206)"/>
<path d="M0 0 C0.66 0 1.32 0 2 0 C0.9024777 2.99324263 0.32317108 3.84610901 -2.625 5.25 C-3.40875 5.4975 -4.1925 5.745 -5 6 C-5.33 5.34 -5.66 4.68 -6 4 C-8.52733235 3.34444881 -8.52733235 3.34444881 -11 3 C-11 2.67 -11 2.34 -11 2 C-10.28972656 1.93941406 -9.57945312 1.87882812 -8.84765625 1.81640625 C-7.46900391 1.69072266 -7.46900391 1.69072266 -6.0625 1.5625 C-5.14597656 1.48128906 -4.22945312 1.40007812 -3.28515625 1.31640625 C-1.03840268 1.23955024 -1.03840268 1.23955024 0 0 Z " fill="#27282A" transform="translate(183,256)"/>
<path d="M0 0 C2.49361571 1.20381448 4.68143083 2.45428722 7 4 C6.34 5.32 5.68 6.64 5 8 C3.68 7.67 2.36 7.34 1 7 C1.33 5.68 1.66 4.36 2 3 C1.34 2.67 0.68 2.34 0 2 C0 1.34 0 0.68 0 0 Z " fill="#101113" transform="translate(215,256)"/>
<path d="M0 0 C3.13759973 0.82175231 4.70255875 1.70255875 7 4 C5.35 4.33 3.7 4.66 2 5 C2 4.34 2 3.68 2 3 C0.02 3.99 0.02 3.99 -2 5 C-2.66 4.34 -3.32 3.68 -4 3 C-2.3125 1.375 -2.3125 1.375 0 0 Z " fill="#0E0F11" transform="translate(135,210)"/>
<path d="M0 0 C4.455 0.99 4.455 0.99 9 2 C8.01 3.485 8.01 3.485 7 5 C6.236875 4.67 5.47375 4.34 4.6875 4 C2.00930865 2.82563314 2.00930865 2.82563314 -1 3 C-0.67 2.01 -0.34 1.02 0 0 Z " fill="#0E0F11" transform="translate(143,130)"/>
<path d="M0 0 C0.66 0.33 1.32 0.66 2 1 C2.33 1.99 2.66 2.98 3 4 C2.01 4.33 1.02 4.66 0 5 C-0.66 4.67 -1.32 4.34 -2 4 C-2.33 4.66 -2.66 5.32 -3 6 C-3.66 5.01 -4.32 4.02 -5 3 C-2.625 1.4375 -2.625 1.4375 0 0 Z " fill="#E1E1E1" transform="translate(228,136)"/>
<path d="M0 0 C0.99 0.33 1.98 0.66 3 1 C2.67 1.66 2.34 2.32 2 3 C1.34 3 0.68 3 0 3 C0 3.66 0 4.32 0 5 C-0.99 5.33 -1.98 5.66 -3 6 C-3 5.34 -3 4.68 -3 4 C-3.66 3.67 -4.32 3.34 -5 3 C-2.6875 1.4375 -2.6875 1.4375 0 0 Z " fill="#131415" transform="translate(124,206)"/>
<path d="M0 0 C5.75 0.75 5.75 0.75 8 3 C5.10765685 3.82638376 3.11257569 4 0 4 C0 2.66666667 0 1.33333333 0 0 Z " fill="#1F1F21" transform="translate(198,79)"/>
<path d="M0 0 C2.125 0.9375 2.125 0.9375 4 2 C-0.75 5 -0.75 5 -3 5 C-2.625 3.0625 -2.625 3.0625 -2 1 C-1.34 0.67 -0.68 0.34 0 0 Z " fill="#1B1B1B" transform="translate(152,177)"/>
<path d="M0 0 C3.465 1.485 3.465 1.485 7 3 C7 3.33 7 3.66 7 4 C5.02 4.33 3.04 4.66 1 5 C0.67 3.35 0.34 1.7 0 0 Z " fill="#0D0E10" transform="translate(276,207)"/>
</svg>
